# xmcd CD database file
#
# Track frame offsets:
#	150
#	13444
#	28058
#	42142
#	56623
#	68744
#	80912
#	94497
#	107466
#	121169
#	136065
#	150468
#	163482
#	177402
#	191069
#	205509
#	218262
#	230765
#	244262
#	258815
#	272580
#	286404
#	300178
#	314259
#	328538
#
# Disc length: 4577 seconds
#
# Revision: 0
# Processed by: cddbd v1.4PL0 Copyright (c) Steve Scherf et al.
# Submitted via: CDex 1.50Beta5
#
DISCID=5d11df19
DTITLE=John Lee Hooker - Disk B 1948-1951
DYEAR=2002
DGENRE=Blues
TTITLE0=Hoogie Boogie
TTITLE1=Graveyard Blues
TTITLE2=Whistlin' And Moaning Blues
TTITLE3=I Love To Boogie
TTITLE4=Miss Eloise
TTITLE5=Burnin' Hell
TTITLE6=I Had A Dream
TTITLE7=Nightmare Blues
TTITLE8=Late Last Night
TTITLE9=Wandering Blues
TTITLE10=Don't Go Baby
TTITLE11=Devil's Jump
TTITLE12=I' Gonna Kill That Woman
TTITLE13=Moaning Blues
TTITLE14=The Numbers
TTITLE15=Weeping Willow
TTITLE16=Miss Sadie Mae
TTITLE17=Sometime
TTITLE18=Forgive Me
TTITLE19=Heart Trouble Blues
TTITLE20=Slim's Stomp
TTITLE21=Miss Lorraine
TTITLE22=Talkin' Boogie
TTITLE23=Road Trouble
TTITLE24=609 Boogie
EXTD=YEAR: 2002
EXTT0=
EXTT1=
EXTT2=
EXTT3=
EXTT4=
EXTT5=
EXTT6=
EXTT7=
EXTT8=
EXTT9=
EXTT10=
EXTT11=
EXTT12=
EXTT13=
EXTT14=
EXTT15=
EXTT16=
EXTT17=
EXTT18=
EXTT19=
EXTT20=
EXTT21=
EXTT22=
EXTT23=
EXTT24=
PLAYORDER=
